<mxfile host="app.diagrams.net" modified="2023-07-31T16:27:32.462Z" agent="Mozilla/5.0 (X11; Linux x86_64) AppleWebKit/537.36 (KHTML, like Gecko) Chrome/114.0.0.0 Safari/537.36" etag="06JHc7_ADk5KduIXvkys" version="21.6.5" type="github">
  <diagram name="Page-1" id="alPhshSXl5excG2jQ6qK">
    <mxGraphModel dx="1615" dy="894" grid="1" gridSize="10" guides="1" tooltips="1" connect="1" arrows="1" fold="1" page="1" pageScale="1" pageWidth="827" pageHeight="1169" math="0" shadow="0">
      <root>
        <mxCell id="0" />
        <mxCell id="1" parent="0" />
        <mxCell id="jGVcuTMuIBffWscYEj-w-152" value="" style="rounded=0;whiteSpace=wrap;html=1;dashed=1;dashPattern=12 12;fillColor=none;" vertex="1" parent="1">
          <mxGeometry x="1210" y="84.5" width="220" height="357" as="geometry" />
        </mxCell>
        <mxCell id="jGVcuTMuIBffWscYEj-w-148" value="" style="rounded=0;whiteSpace=wrap;html=1;" vertex="1" parent="1">
          <mxGeometry x="1217.25" y="103.5" width="200" height="320" as="geometry" />
        </mxCell>
        <mxCell id="oIyeds10D-Jy80htqhCC-4" value="" style="rounded=0;whiteSpace=wrap;html=1;" parent="1" vertex="1">
          <mxGeometry x="330" y="40" width="670" height="410" as="geometry" />
        </mxCell>
        <mxCell id="jGVcuTMuIBffWscYEj-w-147" value="" style="rounded=0;whiteSpace=wrap;html=1;" vertex="1" parent="1">
          <mxGeometry x="440" y="110" width="200" height="320" as="geometry" />
        </mxCell>
        <mxCell id="oIyeds10D-Jy80htqhCC-6" value="" style="rounded=0;whiteSpace=wrap;html=1;" parent="1" vertex="1">
          <mxGeometry x="690" y="110" width="200" height="320" as="geometry" />
        </mxCell>
        <mxCell id="oIyeds10D-Jy80htqhCC-22" value="Middle Tier" style="text;strokeColor=none;align=center;fillColor=none;html=1;verticalAlign=middle;whiteSpace=wrap;rounded=0;" parent="1" vertex="1">
          <mxGeometry x="690" y="82" width="180" height="30" as="geometry" />
        </mxCell>
        <mxCell id="oIyeds10D-Jy80htqhCC-23" value="Front-End Tier&lt;br&gt;" style="text;strokeColor=none;align=center;fillColor=none;html=1;verticalAlign=middle;whiteSpace=wrap;rounded=0;" parent="1" vertex="1">
          <mxGeometry x="470" y="82" width="96" height="30" as="geometry" />
        </mxCell>
        <mxCell id="oIyeds10D-Jy80htqhCC-24" value="Beck-End Tier" style="text;strokeColor=none;align=center;fillColor=none;html=1;verticalAlign=middle;whiteSpace=wrap;rounded=0;" parent="1" vertex="1">
          <mxGeometry x="1316" y="103.5" width="96" height="30" as="geometry" />
        </mxCell>
        <mxCell id="jGVcuTMuIBffWscYEj-w-101" style="edgeStyle=orthogonalEdgeStyle;rounded=0;orthogonalLoop=1;jettySize=auto;html=1;" edge="1" parent="1" source="oIyeds10D-Jy80htqhCC-1" target="oIyeds10D-Jy80htqhCC-25">
          <mxGeometry relative="1" as="geometry" />
        </mxCell>
        <mxCell id="oIyeds10D-Jy80htqhCC-1" value="Application GW&lt;br&gt;SSL certificate&lt;br&gt;" style="image;aspect=fixed;html=1;points=[];align=center;fontSize=12;image=img/lib/azure2/networking/Application_Gateways.svg;" parent="1" vertex="1">
          <mxGeometry x="256" y="198.5" width="64" height="64" as="geometry" />
        </mxCell>
        <mxCell id="jGVcuTMuIBffWscYEj-w-116" style="edgeStyle=orthogonalEdgeStyle;rounded=0;orthogonalLoop=1;jettySize=auto;html=1;" edge="1" parent="1" source="jGVcuTMuIBffWscYEj-w-156" target="oIyeds10D-Jy80htqhCC-1">
          <mxGeometry relative="1" as="geometry" />
        </mxCell>
        <mxCell id="oIyeds10D-Jy80htqhCC-2" value="Internet" style="image;aspect=fixed;perimeter=ellipsePerimeter;html=1;align=center;shadow=0;dashed=0;spacingTop=3;image=img/lib/active_directory/internet_cloud.svg;" parent="1" vertex="1">
          <mxGeometry x="20" y="200.5" width="95.24" height="60" as="geometry" />
        </mxCell>
        <mxCell id="jGVcuTMuIBffWscYEj-w-113" style="edgeStyle=orthogonalEdgeStyle;rounded=0;orthogonalLoop=1;jettySize=auto;html=1;" edge="1" parent="1" source="oIyeds10D-Jy80htqhCC-25" target="oIyeds10D-Jy80htqhCC-26">
          <mxGeometry relative="1" as="geometry" />
        </mxCell>
        <mxCell id="oIyeds10D-Jy80htqhCC-25" value="Azure App Service&lt;br&gt;.NET web Application&lt;br&gt;&lt;br&gt;Managed service&lt;br&gt;" style="image;aspect=fixed;html=1;points=[];align=center;fontSize=12;image=img/lib/azure2/app_services/App_Services.svg;" parent="1" vertex="1">
          <mxGeometry x="504" y="199" width="64" height="64" as="geometry" />
        </mxCell>
        <mxCell id="jGVcuTMuIBffWscYEj-w-115" style="edgeStyle=orthogonalEdgeStyle;rounded=0;orthogonalLoop=1;jettySize=auto;html=1;" edge="1" parent="1" source="jGVcuTMuIBffWscYEj-w-142" target="oIyeds10D-Jy80htqhCC-27">
          <mxGeometry relative="1" as="geometry" />
        </mxCell>
        <mxCell id="oIyeds10D-Jy80htqhCC-26" value="Azure Function&lt;br&gt;Sends Email to customer&amp;nbsp;" style="image;sketch=0;aspect=fixed;html=1;points=[];align=center;fontSize=12;image=img/lib/mscae/Functions.svg;" parent="1" vertex="1">
          <mxGeometry x="767" y="208" width="50" height="46" as="geometry" />
        </mxCell>
        <mxCell id="oIyeds10D-Jy80htqhCC-27" value="Agent - connects&lt;br&gt;&amp;nbsp;the on-premise to cloud" style="image;aspect=fixed;html=1;points=[];align=center;fontSize=12;image=img/lib/azure2/databases/SQL_Database.svg;" parent="1" vertex="1">
          <mxGeometry x="1340" y="199.5" width="48" height="64" as="geometry" />
        </mxCell>
        <mxCell id="jGVcuTMuIBffWscYEj-w-1" value="Azure Cloud - Region: East US" style="text;strokeColor=none;align=center;fillColor=none;html=1;verticalAlign=middle;whiteSpace=wrap;rounded=0;" vertex="1" parent="1">
          <mxGeometry x="344" y="40" width="140" height="30" as="geometry" />
        </mxCell>
        <mxCell id="jGVcuTMuIBffWscYEj-w-85" value="On-Premise - Region: East US" style="text;strokeColor=none;align=center;fillColor=none;html=1;verticalAlign=middle;whiteSpace=wrap;rounded=0;" vertex="1" parent="1">
          <mxGeometry x="1231.75" y="79.5" width="174.5" height="33" as="geometry" />
        </mxCell>
        <mxCell id="jGVcuTMuIBffWscYEj-w-142" value="agent&lt;br&gt;" style="image;aspect=fixed;html=1;points=[];align=center;fontSize=12;image=img/lib/azure2/management_governance/My_Customers.svg;" vertex="1" parent="1">
          <mxGeometry x="1230" y="215.5" width="39.43" height="32" as="geometry" />
        </mxCell>
        <mxCell id="jGVcuTMuIBffWscYEj-w-166" style="edgeStyle=orthogonalEdgeStyle;rounded=0;orthogonalLoop=1;jettySize=auto;html=1;exitX=1;exitY=0.75;exitDx=0;exitDy=0;" edge="1" parent="1" source="jGVcuTMuIBffWscYEj-w-149" target="jGVcuTMuIBffWscYEj-w-165">
          <mxGeometry relative="1" as="geometry" />
        </mxCell>
        <mxCell id="jGVcuTMuIBffWscYEj-w-149" value="" style="rounded=0;whiteSpace=wrap;html=1;dashed=1;dashPattern=12 12;fillColor=none;" vertex="1" parent="1">
          <mxGeometry x="320" y="30" width="690" height="430" as="geometry" />
        </mxCell>
        <mxCell id="jGVcuTMuIBffWscYEj-w-150" value="" style="image;aspect=fixed;html=1;points=[];align=center;fontSize=12;image=img/lib/azure2/networking/Virtual_Networks.svg;" vertex="1" parent="1">
          <mxGeometry x="949.75" y="423.5" width="50.25" height="30" as="geometry" />
        </mxCell>
        <mxCell id="jGVcuTMuIBffWscYEj-w-153" value="" style="image;aspect=fixed;html=1;points=[];align=center;fontSize=12;image=img/lib/azure2/networking/Virtual_Networks.svg;" vertex="1" parent="1">
          <mxGeometry x="1380" y="410" width="52.76" height="31.5" as="geometry" />
        </mxCell>
        <mxCell id="jGVcuTMuIBffWscYEj-w-157" value="" style="edgeStyle=orthogonalEdgeStyle;rounded=0;orthogonalLoop=1;jettySize=auto;html=1;" edge="1" parent="1" source="oIyeds10D-Jy80htqhCC-2" target="jGVcuTMuIBffWscYEj-w-156">
          <mxGeometry relative="1" as="geometry">
            <mxPoint x="105" y="232" as="sourcePoint" />
            <mxPoint x="260" y="230" as="targetPoint" />
          </mxGeometry>
        </mxCell>
        <mxCell id="jGVcuTMuIBffWscYEj-w-156" value="WAF&lt;br&gt;" style="image;aspect=fixed;html=1;points=[];align=center;fontSize=12;image=img/lib/azure2/networking/Web_Application_Firewall_Policies_WAF.svg;" vertex="1" parent="1">
          <mxGeometry x="160" y="197" width="68" height="68" as="geometry" />
        </mxCell>
        <mxCell id="jGVcuTMuIBffWscYEj-w-162" value="" style="edgeStyle=orthogonalEdgeStyle;rounded=0;orthogonalLoop=1;jettySize=auto;html=1;exitX=0;exitY=0.75;exitDx=0;exitDy=0;" edge="1" parent="1" source="jGVcuTMuIBffWscYEj-w-152" target="jGVcuTMuIBffWscYEj-w-165">
          <mxGeometry x="0.0058" relative="1" as="geometry">
            <mxPoint x="1210" y="352" as="sourcePoint" />
            <mxPoint x="1137.9999999999995" y="321.0000000000002" as="targetPoint" />
            <mxPoint as="offset" />
          </mxGeometry>
        </mxCell>
        <mxCell id="jGVcuTMuIBffWscYEj-w-167" value="Peering" style="edgeStyle=orthogonalEdgeStyle;rounded=0;orthogonalLoop=1;jettySize=auto;html=1;entryX=0;entryY=0.75;entryDx=0;entryDy=0;" edge="1" parent="1" source="jGVcuTMuIBffWscYEj-w-165" target="jGVcuTMuIBffWscYEj-w-152">
          <mxGeometry relative="1" as="geometry" />
        </mxCell>
        <mxCell id="jGVcuTMuIBffWscYEj-w-172" style="edgeStyle=orthogonalEdgeStyle;rounded=0;orthogonalLoop=1;jettySize=auto;html=1;entryX=1;entryY=0.75;entryDx=0;entryDy=0;" edge="1" parent="1" source="jGVcuTMuIBffWscYEj-w-165" target="jGVcuTMuIBffWscYEj-w-149">
          <mxGeometry relative="1" as="geometry" />
        </mxCell>
        <mxCell id="jGVcuTMuIBffWscYEj-w-165" value="Firewall&lt;br&gt;" style="image;sketch=0;aspect=fixed;html=1;points=[];align=center;fontSize=12;image=img/lib/mscae/Azure_Firewall.svg;" vertex="1" parent="1">
          <mxGeometry x="1080" y="230" width="60" height="60" as="geometry" />
        </mxCell>
        <mxCell id="jGVcuTMuIBffWscYEj-w-169" value="" style="edgeStyle=orthogonalEdgeStyle;rounded=0;orthogonalLoop=1;jettySize=auto;html=1;" edge="1" parent="1" source="jGVcuTMuIBffWscYEj-w-168" target="oIyeds10D-Jy80htqhCC-26">
          <mxGeometry relative="1" as="geometry" />
        </mxCell>
        <mxCell id="jGVcuTMuIBffWscYEj-w-168" value="customer service" style="image;aspect=fixed;html=1;points=[];align=center;fontSize=12;image=img/lib/azure2/management_governance/My_Customers.svg;" vertex="1" parent="1">
          <mxGeometry x="725.28" y="133.5" width="39.43" height="32" as="geometry" />
        </mxCell>
      </root>
    </mxGraphModel>
  </diagram>
</mxfile>
